<?xml version="1.0" encoding="utf-8"?>
<!-- Generator: Adobe Illustrator 16.0.0, SVG Export Plug-In . SVG Version: 6.00 Build 0)  -->
<!DOCTYPE svg PUBLIC "-//W3C//DTD SVG 1.1//EN" "http://www.w3.org/Graphics/SVG/1.1/DTD/svg11.dtd">
<svg version="1.1" id="Layer_1" xmlns="http://www.w3.org/2000/svg" xmlns:xlink="http://www.w3.org/1999/xlink" x="0px" y="0px"
	 width="380.588px" height="383.373px" viewBox="0 0 380.588 383.373" enable-background="new 0 0 380.588 383.373"
	 xml:space="preserve">
<g>
	<g>
		<g>
			<linearGradient id="SVGID_1_" gradientUnits="userSpaceOnUse" x1="75.0815" y1="362.9736" x2="267.5544" y2="86.8167">
				<stop  offset="0" style="stop-color:#28456D"/>
				<stop  offset="1" style="stop-color:#385C8E"/>
			</linearGradient>
			<path fill="url(#SVGID_1_)" d="M191.293,361.695c-91.235,0-165.461-74.225-165.461-165.461
				c0-91.234,74.226-165.463,165.461-165.463c91.234,0,165.464,74.229,165.464,165.463
				C356.757,287.471,282.527,361.695,191.293,361.695z M191.293,34.953c-88.926,0-161.278,72.352-161.278,161.281
				c0,88.928,72.353,161.279,161.278,161.279c88.925,0,161.273-72.352,161.273-161.279
				C352.566,107.305,280.218,34.953,191.293,34.953z"/>
		</g>
		<linearGradient id="SVGID_2_" gradientUnits="userSpaceOnUse" x1="36.2559" y1="191.2432" x2="329.3076" y2="191.2432">
			<stop  offset="0" style="stop-color:#28456D"/>
			<stop  offset="1" style="stop-color:#385C8E"/>
		</linearGradient>
		<path fill="url(#SVGID_2_)" d="M329.308,191.242c0,80.926-65.603,146.525-146.527,146.525c-80.922,0-146.524-65.6-146.524-146.525
			c0-80.92,65.603-146.523,146.524-146.523C263.705,44.719,329.308,110.322,329.308,191.242z"/>
		<path fill="#FFFFFF" d="M201.478,24.524c81.622,0,148.026,66.403,148.026,148.025c0,81.621-66.404,148.025-148.026,148.025
			c-81.62,0-148.026-66.404-148.026-148.025C53.451,90.927,119.857,24.524,201.478,24.524 M201.478,21.677
			c-83.321,0-150.868,67.546-150.868,150.872c0,83.324,67.547,150.871,150.868,150.871c83.325,0,150.869-67.547,150.869-150.871
			C352.347,89.224,284.803,21.677,201.478,21.677L201.478,21.677z"/>
	</g>
	<path fill="#FFFFFF" d="M149.58,185.784h19.339v79.615c0,1.573,1.274,2.846,2.846,2.846h32.789c1.572,0,2.846-1.272,2.846-2.846
		V186.16h22.232c1.445,0,2.662-1.085,2.826-2.521l3.378-29.312c0.093-0.806-0.163-1.614-0.702-2.22
		c-0.541-0.604-1.313-0.95-2.125-0.95h-25.607v-18.374c0-5.539,2.982-8.349,8.864-8.349c0.839,0,16.743,0,16.743,0
		c1.572,0,2.846-1.273,2.846-2.845V94.688c0-1.573-1.273-2.845-2.846-2.845h-23.074c-0.163-0.009-0.524-0.023-1.058-0.023
		c-4.003,0-17.92,0.787-28.913,10.898c-12.18,11.209-10.487,24.627-10.082,26.954v21.484H149.58c-1.572,0-2.845,1.273-2.845,2.846
		v28.938C146.734,184.51,148.008,185.784,149.58,185.784z"/>
</g>
</svg>
