<?xml version="1.0" encoding="utf-8"?>
<!-- Generator: Adobe Illustrator 16.0.0, SVG Export Plug-In . SVG Version: 6.00 Build 0)  -->
<!DOCTYPE svg PUBLIC "-//W3C//DTD SVG 1.1//EN" "http://www.w3.org/Graphics/SVG/1.1/DTD/svg11.dtd">
<svg version="1.1" id="Layer_1" xmlns="http://www.w3.org/2000/svg" xmlns:xlink="http://www.w3.org/1999/xlink" x="0px" y="0px"
	 width="380.588px" height="383.373px" viewBox="0 0 380.588 383.373" enable-background="new 0 0 380.588 383.373"
	 xml:space="preserve">
<g>
	<g>
		<g>
			<linearGradient id="SVGID_1_" gradientUnits="userSpaceOnUse" x1="74.082" y1="362.9736" x2="266.5549" y2="86.8167">
				<stop  offset="0" style="stop-color:#FDBB5B"/>
				<stop  offset="0.3273" style="stop-color:#EF374C"/>
				<stop  offset="0.6485" style="stop-color:#A2499B"/>
				<stop  offset="1" style="stop-color:#545EAA"/>
			</linearGradient>
			<path fill="url(#SVGID_1_)" d="M190.293,361.695c-91.235,0-165.461-74.225-165.461-165.461
				c0-91.234,74.226-165.463,165.461-165.463c91.234,0,165.464,74.229,165.464,165.463
				C355.757,287.471,281.527,361.695,190.293,361.695z M190.293,34.953c-88.926,0-161.278,72.352-161.278,161.281
				c0,88.928,72.353,161.279,161.278,161.279c88.925,0,161.273-72.352,161.273-161.279
				C351.566,107.305,279.218,34.953,190.293,34.953z"/>
		</g>
		<linearGradient id="SVGID_2_" gradientUnits="userSpaceOnUse" x1="31.8379" y1="406.3809" x2="261.2791" y2="77.1822">
			<stop  offset="0" style="stop-color:#FDBB5B"/>
			<stop  offset="0.3273" style="stop-color:#EF374C"/>
			<stop  offset="0.6485" style="stop-color:#A2499B"/>
			<stop  offset="1" style="stop-color:#545EAA"/>
		</linearGradient>
		<path fill="url(#SVGID_2_)" d="M328.308,191.242c0,80.926-65.603,146.525-146.527,146.525c-80.922,0-146.524-65.6-146.524-146.525
			c0-80.92,65.603-146.523,146.524-146.523C262.705,44.719,328.308,110.322,328.308,191.242z"/>
		<path fill="#FFFFFF" d="M200.478,24.524c81.622,0,148.026,66.403,148.026,148.025c0,81.621-66.404,148.025-148.026,148.025
			c-81.62,0-148.026-66.404-148.026-148.025C52.451,90.927,118.857,24.524,200.478,24.524 M200.478,21.677
			c-83.321,0-150.868,67.546-150.868,150.872c0,83.324,67.547,150.871,150.868,150.871c83.325,0,150.869-67.547,150.869-150.871
			C351.347,89.224,283.803,21.677,200.478,21.677L200.478,21.677z"/>
	</g>
	<g>
		<path fill="#FFFFFF" d="M225.752,246.738h-70.919c-14.68,0-26.628-11.67-26.628-26.027v-73.018
			c0-14.35,11.948-26.027,26.628-26.027h70.919c14.681,0,26.631,11.678,26.631,26.027v73.018
			C252.383,235.068,240.433,246.738,225.752,246.738 M154.833,132.39c-8.773,0-15.912,6.864-15.912,15.304v73.018
			c0,8.441,7.139,15.309,15.912,15.309h70.919c8.769,0,15.912-6.867,15.912-15.309v-73.018c0-8.439-7.144-15.304-15.912-15.304
			H154.833z"/>
		<path fill="#FFFFFF" d="M190.291,216.664c-17.896,0-32.463-14.561-32.463-32.459c0-17.904,14.566-32.461,32.463-32.461
			c17.899,0,32.465,14.557,32.465,32.461C222.756,202.104,208.19,216.664,190.291,216.664 M190.291,162.461
			c-11.991,0-21.741,9.754-21.741,21.744c0,11.984,9.75,21.736,21.741,21.736c11.992,0,21.744-9.752,21.744-21.736
			C212.035,172.215,202.283,162.461,190.291,162.461z"/>
		<path fill="#FFFFFF" d="M232.726,150.109c0,4.189-3.395,7.592-7.59,7.592c-4.196,0-7.595-3.402-7.595-7.592
			c0-4.193,3.398-7.595,7.595-7.595C229.331,142.515,232.726,145.916,232.726,150.109"/>
	</g>
</g>
</svg>
