<?xml version="1.0" encoding="utf-8"?>
<!-- Generator: Adobe Illustrator 16.0.0, SVG Export Plug-In . SVG Version: 6.00 Build 0)  -->
<!DOCTYPE svg PUBLIC "-//W3C//DTD SVG 1.1//EN" "http://www.w3.org/Graphics/SVG/1.1/DTD/svg11.dtd">
<svg version="1.1" id="Layer_1" xmlns="http://www.w3.org/2000/svg" xmlns:xlink="http://www.w3.org/1999/xlink" x="0px" y="0px"
	 width="380.588px" height="383.373px" viewBox="0 0 380.588 383.373" enable-background="new 0 0 380.588 383.373"
	 xml:space="preserve">
<g>
	<g>
		<linearGradient id="SVGID_1_" gradientUnits="userSpaceOnUse" x1="73.415" y1="364.6406" x2="265.8879" y2="88.4836">
			<stop  offset="0" style="stop-color:#17792F"/>
			<stop  offset="1" style="stop-color:#38B44A"/>
		</linearGradient>
		<path fill="url(#SVGID_1_)" d="M189.627,363.362c-91.235,0-165.461-74.225-165.461-165.461
			c0-91.234,74.226-165.463,165.461-165.463c91.234,0,165.464,74.229,165.464,165.463
			C355.091,289.138,280.861,363.362,189.627,363.362z M189.627,36.62c-88.926,0-161.278,72.352-161.278,161.281
			c0,88.928,72.353,161.279,161.278,161.279c88.925,0,161.273-72.352,161.273-161.279C350.9,108.972,278.552,36.62,189.627,36.62z"
			/>
	</g>
	<linearGradient id="SVGID_2_" gradientUnits="userSpaceOnUse" x1="34.5898" y1="192.9102" x2="327.6416" y2="192.9102">
		<stop  offset="0" style="stop-color:#17792F"/>
		<stop  offset="1" style="stop-color:#38B44A"/>
	</linearGradient>
	<path fill="url(#SVGID_2_)" d="M327.642,192.909c0,80.926-65.603,146.525-146.527,146.525c-80.922,0-146.524-65.6-146.524-146.525
		c0-80.92,65.603-146.523,146.524-146.523C262.039,46.386,327.642,111.989,327.642,192.909z"/>
	<path fill="#FFFFFF" d="M199.812,26.191c81.622,0,148.026,66.403,148.026,148.025c0,81.621-66.404,148.025-148.026,148.025
		c-81.62,0-148.026-66.404-148.026-148.025C51.785,92.594,118.191,26.191,199.812,26.191 M199.812,23.344
		c-83.321,0-150.868,67.546-150.868,150.872c0,83.324,67.547,150.871,150.868,150.871c83.325,0,150.869-67.547,150.869-150.871
		C350.681,90.891,283.137,23.344,199.812,23.344L199.812,23.344z"/>
</g>
<g>
	<path fill="#FFFFFF" d="M271.484,221.435c-6.092-11.513-28.557-24.678-28.557-24.678c-5.083-2.897-11.217-3.222-14.114,1.945
		c0,0-7.3,8.753-9.157,10.012c-8.48,5.745-16.335,5.522-24.266-2.407l-18.428-18.428l-18.428-18.429
		c-7.93-7.93-8.152-15.785-2.407-24.266c1.259-1.856,10.013-9.156,10.013-9.156c5.166-2.902,4.842-9.032,1.944-14.114
		c0,0-13.165-22.465-24.678-28.557c-4.897-2.593-10.911-1.685-14.827,2.231l-8.138,8.138
		c-25.816,25.816-13.105,54.961,12.711,80.777l23.595,23.595l23.594,23.594c25.816,25.817,54.961,38.528,80.777,12.712l8.139-8.138
		C273.174,232.341,274.076,226.328,271.484,221.435z"/>
</g>
</svg>
